<mxfile host="app.diagrams.net" modified="2022-11-03T13:43:26.262Z" agent="5.0 (Macintosh)" etag="8dIoSna9Ger0dbLswvOI" version="20.5.1" type="github">
  <diagram id="kgpKYQtTHZ0yAKxKKP6v" name="Page-1">
    <mxGraphModel dx="952" dy="2170" grid="1" gridSize="10" guides="1" tooltips="1" connect="1" arrows="1" fold="1" page="1" pageScale="1" pageWidth="850" pageHeight="1100" math="0" shadow="0">
      <root>
        <mxCell id="0" />
        <mxCell id="1" parent="0" />
        <mxCell id="3nuBFxr9cyL0pnOWT2aG-7" value="return" style="verticalAlign=bottom;endArrow=open;dashed=1;endSize=8;shadow=0;strokeWidth=1;" parent="1" target="D1hPwI1u1eyKQ4dJg58t-6" edge="1">
          <mxGeometry x="-1" y="116" relative="1" as="geometry">
            <mxPoint x="470" y="299.9999999999998" as="targetPoint" />
            <mxPoint x="460" y="760" as="sourcePoint" />
            <mxPoint x="115" y="-98" as="offset" />
          </mxGeometry>
        </mxCell>
        <mxCell id="3nuBFxr9cyL0pnOWT2aG-9" value="callback" style="verticalAlign=bottom;endArrow=block;shadow=0;strokeWidth=1;" parent="1" edge="1">
          <mxGeometry x="-0.0323" y="-20" relative="1" as="geometry">
            <mxPoint x="365" y="119.5" as="sourcePoint" />
            <mxPoint x="555" y="120" as="targetPoint" />
            <mxPoint as="offset" />
          </mxGeometry>
        </mxCell>
        <mxCell id="D1hPwI1u1eyKQ4dJg58t-1" value="&lt;font style=&quot;font-size: 16px;&quot;&gt;Transcriptomics Data&lt;/font&gt;" style="rounded=0;whiteSpace=wrap;html=1;" vertex="1" parent="1">
          <mxGeometry x="110" y="20" width="170" height="80" as="geometry" />
        </mxCell>
        <mxCell id="D1hPwI1u1eyKQ4dJg58t-2" value="&lt;font style=&quot;font-size: 16px;&quot;&gt;Chemical Compound Information&lt;/font&gt;" style="rounded=0;whiteSpace=wrap;html=1;" vertex="1" parent="1">
          <mxGeometry x="110" y="270" width="170" height="80" as="geometry" />
        </mxCell>
        <mxCell id="D1hPwI1u1eyKQ4dJg58t-5" value="&lt;font style=&quot;font-size: 16px;&quot;&gt;Cell Painting Data&lt;/font&gt;" style="rounded=0;whiteSpace=wrap;html=1;" vertex="1" parent="1">
          <mxGeometry x="110" y="520" width="170" height="80" as="geometry" />
        </mxCell>
        <mxCell id="D1hPwI1u1eyKQ4dJg58t-6" value="" style="rounded=0;whiteSpace=wrap;html=1;" vertex="1" parent="1">
          <mxGeometry x="460" y="749.9999999999998" width="120" height="60" as="geometry" />
        </mxCell>
        <mxCell id="D1hPwI1u1eyKQ4dJg58t-7" value="Source: " style="rounded=0;whiteSpace=wrap;html=1;" vertex="1" parent="1">
          <mxGeometry x="115" y="100" width="155" height="40" as="geometry" />
        </mxCell>
        <mxCell id="D1hPwI1u1eyKQ4dJg58t-8" value="Source:" style="rounded=0;whiteSpace=wrap;html=1;" vertex="1" parent="1">
          <mxGeometry x="115" y="350" width="155" height="40" as="geometry" />
        </mxCell>
        <mxCell id="D1hPwI1u1eyKQ4dJg58t-9" value="Source: " style="rounded=0;whiteSpace=wrap;html=1;" vertex="1" parent="1">
          <mxGeometry x="120" y="600" width="150" height="40" as="geometry" />
        </mxCell>
        <mxCell id="D1hPwI1u1eyKQ4dJg58t-12" value="Tian: EfficientNet" style="verticalAlign=bottom;endArrow=block;shadow=0;strokeWidth=1;fontSize=12;" edge="1" parent="1">
          <mxGeometry relative="1" as="geometry">
            <mxPoint x="370" y="590" as="sourcePoint" />
            <mxPoint x="550" y="590.5" as="targetPoint" />
            <mxPoint as="offset" />
          </mxGeometry>
        </mxCell>
        <mxCell id="D1hPwI1u1eyKQ4dJg58t-13" value="Tian" style="verticalAlign=bottom;endArrow=block;shadow=0;strokeWidth=1;" edge="1" parent="1">
          <mxGeometry x="-0.0323" y="-20" relative="1" as="geometry">
            <mxPoint x="365" y="367" as="sourcePoint" />
            <mxPoint x="555" y="367.5" as="targetPoint" />
            <mxPoint as="offset" />
          </mxGeometry>
        </mxCell>
        <mxCell id="D1hPwI1u1eyKQ4dJg58t-14" value="Input" style="rounded=0;whiteSpace=wrap;html=1;fontStyle=1" vertex="1" parent="1">
          <mxGeometry x="30" y="-110" width="280" height="60" as="geometry" />
        </mxCell>
        <mxCell id="D1hPwI1u1eyKQ4dJg58t-15" value="Machine Learning Framework" style="rounded=0;whiteSpace=wrap;html=1;" vertex="1" parent="1">
          <mxGeometry x="320" y="-110" width="280" height="60" as="geometry" />
        </mxCell>
        <mxCell id="D1hPwI1u1eyKQ4dJg58t-16" value="Prediction" style="rounded=0;whiteSpace=wrap;html=1;" vertex="1" parent="1">
          <mxGeometry x="830" y="-110" width="270" height="60" as="geometry" />
        </mxCell>
        <mxCell id="D1hPwI1u1eyKQ4dJg58t-17" value="Type:" style="rounded=0;whiteSpace=wrap;html=1;" vertex="1" parent="1">
          <mxGeometry x="115" y="140" width="155" height="40" as="geometry" />
        </mxCell>
        <mxCell id="D1hPwI1u1eyKQ4dJg58t-18" value="Source: " style="rounded=0;whiteSpace=wrap;html=1;" vertex="1" parent="1">
          <mxGeometry x="115" y="180" width="155" height="40" as="geometry" />
        </mxCell>
        <mxCell id="D1hPwI1u1eyKQ4dJg58t-21" value="Source: " style="rounded=0;whiteSpace=wrap;html=1;" vertex="1" parent="1">
          <mxGeometry x="120" y="680" width="155" height="40" as="geometry" />
        </mxCell>
        <mxCell id="D1hPwI1u1eyKQ4dJg58t-22" value="Type: " style="rounded=0;whiteSpace=wrap;html=1;" vertex="1" parent="1">
          <mxGeometry x="120" y="640" width="155" height="40" as="geometry" />
        </mxCell>
        <mxCell id="D1hPwI1u1eyKQ4dJg58t-23" value="Source: " style="rounded=0;whiteSpace=wrap;html=1;" vertex="1" parent="1">
          <mxGeometry x="115" y="430" width="155" height="40" as="geometry" />
        </mxCell>
        <mxCell id="D1hPwI1u1eyKQ4dJg58t-24" value="Type:" style="rounded=0;whiteSpace=wrap;html=1;" vertex="1" parent="1">
          <mxGeometry x="115" y="390" width="155" height="40" as="geometry" />
        </mxCell>
        <mxCell id="D1hPwI1u1eyKQ4dJg58t-26" value="&lt;div&gt;Preprocessing&lt;/div&gt;&lt;div&gt;&lt;br&gt;&lt;/div&gt;" style="rounded=0;whiteSpace=wrap;html=1;rotation=-90;" vertex="1" parent="1">
          <mxGeometry x="237.5" y="337.5" width="165" height="60" as="geometry" />
        </mxCell>
        <mxCell id="D1hPwI1u1eyKQ4dJg58t-27" value="&lt;div&gt;Preprocessing&lt;/div&gt;&lt;div&gt;&lt;br&gt;&lt;/div&gt;" style="rounded=0;whiteSpace=wrap;html=1;rotation=-90;" vertex="1" parent="1">
          <mxGeometry x="237.5" y="90" width="165" height="60" as="geometry" />
        </mxCell>
        <mxCell id="D1hPwI1u1eyKQ4dJg58t-28" value="&lt;div&gt;Preprocessing&lt;/div&gt;&lt;div&gt;&lt;br&gt;&lt;/div&gt;" style="rounded=0;whiteSpace=wrap;html=1;rotation=-90;" vertex="1" parent="1">
          <mxGeometry x="237.5" y="590" width="165" height="60" as="geometry" />
        </mxCell>
        <mxCell id="D1hPwI1u1eyKQ4dJg58t-30" value="" style="endArrow=classic;html=1;rounded=0;entryX=0.5;entryY=0;entryDx=0;entryDy=0;" edge="1" parent="1" target="D1hPwI1u1eyKQ4dJg58t-31">
          <mxGeometry width="50" height="50" relative="1" as="geometry">
            <mxPoint x="560" y="120" as="sourcePoint" />
            <mxPoint x="660" y="300" as="targetPoint" />
          </mxGeometry>
        </mxCell>
        <mxCell id="D1hPwI1u1eyKQ4dJg58t-31" value="" style="whiteSpace=wrap;html=1;aspect=fixed;" vertex="1" parent="1">
          <mxGeometry x="720" y="327.5" width="80" height="80" as="geometry" />
        </mxCell>
        <mxCell id="D1hPwI1u1eyKQ4dJg58t-32" value="" style="endArrow=classic;html=1;rounded=0;entryX=0.5;entryY=1;entryDx=0;entryDy=0;" edge="1" parent="1" target="D1hPwI1u1eyKQ4dJg58t-31">
          <mxGeometry width="50" height="50" relative="1" as="geometry">
            <mxPoint x="560" y="590" as="sourcePoint" />
            <mxPoint x="690" y="410" as="targetPoint" />
          </mxGeometry>
        </mxCell>
        <mxCell id="D1hPwI1u1eyKQ4dJg58t-33" value="" style="endArrow=classic;html=1;rounded=0;entryX=0;entryY=0.5;entryDx=0;entryDy=0;" edge="1" parent="1" target="D1hPwI1u1eyKQ4dJg58t-31">
          <mxGeometry width="50" height="50" relative="1" as="geometry">
            <mxPoint x="560" y="370" as="sourcePoint" />
            <mxPoint x="690" y="190" as="targetPoint" />
          </mxGeometry>
        </mxCell>
        <mxCell id="D1hPwI1u1eyKQ4dJg58t-34" value="Joint Model" style="rounded=0;whiteSpace=wrap;html=1;" vertex="1" parent="1">
          <mxGeometry x="610" y="-110" width="210" height="60" as="geometry" />
        </mxCell>
        <mxCell id="D1hPwI1u1eyKQ4dJg58t-36" value="" style="rounded=0;whiteSpace=wrap;html=1;" vertex="1" parent="1">
          <mxGeometry x="880" y="20" width="40" height="190" as="geometry" />
        </mxCell>
      </root>
    </mxGraphModel>
  </diagram>
</mxfile>
